<svg xmlns="http://www.w3.org/2000/svg" width="2048" height="2048"><path d="M512 1118h1c13.1-31.4 32.8-56.7 51-85-6.4 0-13.8.8-18.7-4.3-6.6-6.7-6.2-40.5.2-47.4 6-6.7 37.5-6.9 44-.7 4.8 4.7 3.5 13.3 3.5 19.4 27-13.4 49.2-40.5 76-56 15.5-9 43.9-15 56.2-27.2 8.3-8.2-4.6-26.7 7-34.9 18.5-13 45.8-.8 45.8 20.1 6.3-.7 25.7-2 29.7-7 5.3-6.3 1.3-28.8 1.3-37V753c0-116.3-13.4-313.6 137-347-11.9-4-28.5-.8-41-1-33.2-.7-66.7 0-100 0-68.3 0-154.2-15.7-213 26.3-59.6 42.6-71.2 123.2-77.2 190.7-5.6 62.3-2.8 125.5-2.8 188z" style="fill:#2682b1;stroke:none"/><path d="M846 598h311c42.8 0 101.5-12 142 3.3 47.5 18 48 61 48 104.7 0 9-5.2 35.4.4 42.2 5.4 6.6 38.1 1.8 46.6 1.8h142c0-100.4 0-195-73.7-272.8-14-14.8-31-26.8-48.3-37.4a244 244 0 0 0-68-27c-49-12.1-101-7.8-151-7.8-107 0-236.6-21.8-308.5 78q-16.8 23-26.5 50a206 206 0 0 0-14 65" style="fill:#e57c36;stroke:none"/><path d="M681 424c-12.3 21.8-35 38-59 38-4 0-20.4 2.3-22-2.5-1.8-6 10.2-15.9 14-19.3a74 74 0 0 1 67-16.2m147-.7c4-.4 25.7-2.7 27.2 1.5 1.2 3.4-5.2 8.2-7.2 10.2-8 8-17 25.5-29 26.8-6 .7-33.2 3.5-36.6-1.6-2.7-4 4.3-11.4 6.5-14.2a53 53 0 0 1 39.1-22.7m-250 76.4c6.3-2 35.8-3.8 39.7 1.9 4.7 6.8-9 43.4-16.7 45.8-6.9 2.1-34.3 3.7-39.2-2-6.5-7.5 7.5-42.8 16.2-45.7m184-.3c6.6-1.3 35.6-3.8 39.5 2.1 5 7.8-10.6 44.2-19.5 46-7 1.5-33 3.8-38-2.1-7.2-8.8 7.6-44 18-46m-207.9 90.3c7.3-2.5 35.9-3.8 40.8 2.7 5.7 7.4 1.5 46.3-8 49.7-7.3 2.5-35 4-40-2.5-5.8-7.3-2.2-46.7 7.2-50m184 0c7.1-2.3 36.1-3.7 40.8 2.8 5.6 7.8 2.5 45.7-7 49.7-7 2.9-36 3.9-40.7-2.5-6-8-3.7-46.3 6.9-50m-188 96c7.6-2.3 34.6-3.7 40 2.9 6.8 8.2 6.5 47.4-5.1 50.9-8.1 2.5-35.6 3.8-40.8-3.7-6-8.4-5.6-46.6 5.8-50.1m184 .2c7.7-3 37-3.7 42 3.4 5.4 7.6 5.2 45.6-4.1 49.8-7.5 3.3-37.6 4-42.5-3.3-5.6-8.4-6.1-45.5 4.7-49.9M1014 710v214c-129.5 0-259.6-10-368 74.4A347 347 0 0 0 515.6 1219c-8 55-3.6 112.6-3.6 168 0 83 14.2 179.6 87 231 44.8 31.7 106.8 27.7 159 25 65.2-3.2 131.7 0 197 0v-1c-60.7-6.8-108-66-126.3-120-19.6-57.6-19.7-117.9-19.7-178v-180c-21.9 4.4-58.1 24-69 44 9 0 25.1-3 32.8 2.3 8 5.6 8 44.9 0 51-7.3 5.4-40 4.3-44.2-4.3-4.7-9.4-1.6-25.7-1.6-36-9.7 6.3-16.7 18.5-23 28-17.5 26.3-37.3 63.5-38 96h-1q0-41.7 10.7-82c5-18.5 13.4-37 24-53 71-107.7 202.3-89 314.3-89v214c25.2-7.2 50.3-29.7 73-42.7 58-33.3 117.5-67.2 173-104.3v-1c-10.5 3.5-24.8 19.5-36 15l3 3v1l-4 1v-2l-5 1 1-5-7-1-2 4 3-1h1c-5.7 7-3-5.9-4-8l1-3h5l-3 6 3 2h1l2-9h-1v2h-1c.8-2.7 3.8-7.4 0-8 2.1-6 2.1-12.5-1-18l7-4-3-2c.8-10.2.4-26.5-3-36l5-4c-2.9-2.7-7-6.8-3-10l1-8h1v4h1v-22l1-1 3 3-2 4c4.3-2.3 3.3-7 2-11l1-1h3l-3-9 4 2c-4.7-7.6-17.8 4.3-24 8.3-21 13.8-45.7 32.5-69 41.7V923c25 12.2 48.9 37.1 77 40l1-4 6 2v3l5-14-2-6h1v2h1l-1-50h1v2h1v-10l-4-20 6-5-2 3-3-1 5-22v-1l-6-4 6 2v-1l-12-3 2-3c-45.2-29.5-92.4-56.7-139-84-21.1-12.4-43.8-31.4-67-39m-465 72.7c8.2-2.8 35.5-3.7 41.1 3.6 6 7.8 6.6 46.5-4.1 50.3-8 2.7-36.6 4.5-42-2.9-5.7-7.9-5.3-47.5 5-51m187-.2c8.4-2 34.3-3.8 39.8 3.8 5.3 7.3 5.7 47-3.9 50.1-7.7 2.4-37.5 4.3-42.7-2.8-6.5-9-5.7-48.3 6.8-51.1" style="fill:#2682b1;stroke:none"/><path d="m1218 836 4-1zm3 0 3 2zm3 2 6 4v1h-3c1 7-4.8 17.6 1 23l2-3-6 5 4 20v1c-4.6 1-.5 5.6 0 9h-1v-2h-1c-.2 16.2-3.3 34.2 1 50h-1v-2h-1l2 6-5 14v-3l-6-2-1 4-8-2 1 4 4-1c4 9.4 19.5 14.3 28 18.5 21.8 10.9 40 29.5 63 38.5v2l-58 34-7 4-9 6 2 5-4-2c-1 4.2-.4 6.3 3 9h-3l-1 1c.6 4.3 1.4 7.8-2 11l2-4-3-3-1 1v22h-1v-4h-1l-1 8c-6 1.3-.3 8.4 3 10l-5 4c4.2 11.5-2.1 28 6 38l-7 4q3.6 8.8 1 18c4.2 0 .2 5.1 0 8h1v-2h1l-2 9h-1l-3-2 3-6h-5l-1 3c0-.2 1.6 19.6 4 8h-1l-3 1 2-4 7 1-1 5 5-1v2l4-1v-1l-3-3c7.2 4.3 14.7-2.9 21-6.6 17.6-10.2 35.6-19.6 53-30.2 55.7-34 111.6-67.9 168-100.8 18.3-10.6 58-25.5 69-43.4-27.1-9-53.2-32.5-78-47-51-29.8-104.8-58.2-154-91-16.6-11-39.3-27.4-56-33-4.8-1.6-15.7-7-15-10zm1.3 3.7.4.6z" style="fill:#e57c36;stroke:none"/><path d="M1231 841v1l17 9zm.7 3.3.6.4zm-2 2 .6.4z" style="fill:#2682b1;stroke:none"/><path d="m1226.3 849.7.4.6z" style="fill:#e57c36;stroke:none"/><path d="M550 880.6c8.5-2.6 35.6-3.7 40.9 4.5s5.8 46-5 49.3c-8 2.5-36.7 3.8-42-3.6-6-8.5-5.1-46.8 6.1-50.2m679.3 16 .4.7z" style="fill:#2682b1;stroke:none"/><path d="m1216.3 953.7.4.6z" style="fill:#e57c36;stroke:none"/><path d="m1209 964 3 2zm5.7 1.3.6.4zm7.3 1.7 2 3v-3zm-6 1 4 3zm19 12v1l14 7zm11 78 3-2zm-6 4 4-2zm-10 6 9-5z" style="fill:#2682b1;stroke:none"/><path d="M1213 1113v3h1l1-3z" style="fill:#e57c36;stroke:none"/><path d="M1221 1114v3h1z" style="fill:#2682b1;stroke:none"/><path d="m1213 1133-1 3zm0 5v2l2-2z" style="fill:#e57c36;stroke:none"/><path d="m1224.7 1152.3.6.4z" style="fill:#2682b1;stroke:none"/><path d="m1213.3 1154.7.4.6z" style="fill:#e57c36;stroke:none"/><path d="m1224.3 1163.7.4.6zm-1.3 4.3 3 2zm1.7 19.3.6.4zm-3 2 .6.4z" style="fill:#2682b1;stroke:none"/><path d="m1210.7 1190.3.6.4z" style="fill:#e57c36;stroke:none"/><path d="m1219.3 1197.7.4.6zm9 4 .4.6z" style="fill:#2682b1;stroke:none"/><path d="m1209 1207-2 2v1l6-1zm0 6 2-1v1l-2 3 4-5zm-483 7 2 2v-2zm621 77c0 41.9 11.2 99.8-22 132-32.3 31.2-93.7 19-135 19H843c3.3 25.1 7.1 50.9 18 74a201 201 0 0 0 31.2 51c78 86.4 194.6 70 299.8 70 78.6 0 157.8 5.1 227-39.5 55.9-36 98-96.9 110.6-162.5 9.1-47.3 6.4-96 6.4-144z" style="fill:#e57c36;stroke:none"/><path d="M734 1307.6c8-2.5 35.8-3.7 41 3.6 5.7 7.8 5.3 47-5 50.2-7.9 2.4-36 3.8-40.8-3.6-5.4-8-5.9-46.9 4.8-50.2m-184 98c8.2-2.5 36.4-3.7 41.8 3.8 5 6.7 8.6 44.9-1 48-7.8 2.6-36.7 3.7-41.8-3.6-5.3-7.6-10-44.7 1-48.2m184 0c7.8-2.5 35.8-3.7 41.3 2.8s8.8 44.8-.4 48.8c-8.1 3.4-37.8 3.6-42.7-4.3-4.6-7.6-8.7-43.9 1.9-47.3m-166 94.8c8.8-1.6 32.8-3.7 39.1 3.9 4.6 5.5 19 41.2 9.7 44.2-10.5 3.4-38.5 3.5-44.7-6.5-4.8-7.8-19-38.9-4.2-41.6m188 0c8.2-1 27.2-3.6 32.7 4 5 6.8 19.5 43.4 6.3 45.4-9.6 1.4-33.2 3.5-40.7-3.3-13.6-12.3-20.6-43.8 1.7-46.2M605 1587c11.3 0 22.8-1.2 34-1 15.4.4 22.5 14.1 33 23.3 2.4 2 11.6 8.5 7.1 12.4-3.7 3.3-14.4 1.3-19.1 1.3-20 0-53.5-11.6-55-36m177.5.8c18.1-9.9 45.5 2 57.5 14.2 2.9 2.9 19.5 15 14.1 19.7-14.3 12.6-49.3-4.2-60.1-13.4-3-2.7-19.7-16-11.5-20.5" style="fill:#2682b1;stroke:none"/><path d="m942.7 1639.3.6.4zm8 2 .6.4zm-6.7 1.7v1l13-2z" style="fill:#e57c36;stroke:none"/></svg>